<?xml version="1.0" encoding="UTF-8"?>
<!DOCTYPE svg PUBLIC "-//W3C//DTD SVG 1.1//EN" "http://www.w3.org/Graphics/SVG/1.1/DTD/svg11.dtd">
<!-- Creator: CorelDRAW -->
<svg xmlns="http://www.w3.org/2000/svg" xml:space="preserve" width="4.5064mm" height="5.0367mm" version="1.1" style="shape-rendering:geometricPrecision; text-rendering:geometricPrecision; image-rendering:optimizeQuality; fill-rule:evenodd; clip-rule:evenodd"
viewBox="0 0 15.06 16.83"
 xmlns:xlink="http://www.w3.org/1999/xlink"
 xmlns:xodm="http://www.corel.com/coreldraw/odm/2003">
 <defs>
  <style type="text/css">
   <![CDATA[
    .fil0 {fill:#515151}
   ]]>
  </style>
 </defs>
 <g id="Слой_x0020_1">
  <metadata id="CorelCorpID_0Corel-Layer"/>
  <g id="_2515549130352">
   <path class="fil0" d="M14.45 0c0.8,0 0.6,0.69 0.56,1.21l-0.37 4.19c-0.2,1.86 -0.33,3.72 -0.5,5.59l-0.32 3.51c-0.03,0.29 -0.03,0.52 -0.34,0.67l-3.54 1.02c-0.48,0.14 -2.05,0.67 -2.43,0.66 -0.29,-0.01 -0.94,-0.24 -1.25,-0.33l-3.53 -1.01c-1.57,-0.45 -1.44,-0.15 -1.56,-1.78 -0.07,-0.92 -0.15,-1.85 -0.25,-2.77 -0.2,-1.86 -0.3,-3.72 -0.5,-5.58 -0.1,-0.93 -0.13,-1.87 -0.25,-2.8 -0.06,-0.45 -0.09,-0.91 -0.13,-1.37 -0.05,-0.51 -0.23,-1.19 0.56,-1.19 4.61,0 9.23,0 13.84,0zm-1.67 14.27l1.18 -13.22 -12.87 -0.01c0.01,0.61 0.12,1.43 0.18,2.02 0.13,1.49 0.26,2.97 0.4,4.46 0.19,2.16 0.38,4.31 0.59,6.47 0.01,0.06 0.01,0.21 0.02,0.28 0.07,0.02 0.2,0.05 0.26,0.07l4.87 1.39c0.22,0.06 0.42,-0.04 0.63,-0.1l3.48 -1c0.32,-0.09 0.96,-0.22 1.28,-0.36zm-2.58 -4.58c-0.41,0.04 -0.82,0.14 -1.22,0.21 -0.52,0.09 -1.26,0.33 -1.26,-0.51l0 -5.91c0,-0.41 0.21,-0.61 0.61,-0.61l4.14 0c0.73,0 0.6,0.57 0.57,1.07 -0.1,1.59 -0.11,1.42 -1.63,1.42 -0.39,0 -0.8,-0.03 -1.19,-0l-0 1.75c0.44,-0.02 0.97,-0.13 1.38,-0.2 0.77,-0.12 1.22,-0.19 1.11,0.81 -0.11,1.07 -0.19,2.13 -0.27,3.2 -0.06,0.71 0.1,1.19 -0.66,1.39 -0.46,0.12 -0.91,0.25 -1.37,0.38 -0.41,0.11 -2.04,0.68 -2.41,0.5 -0.44,-0.21 -0.27,-1.59 -0.27,-2.01 0,-0.4 0.17,-0.55 0.54,-0.64 0.22,-0.06 0.45,-0.12 0.67,-0.18 0.2,-0.05 1.08,-0.25 1.23,-0.35 0.04,-0.03 0.04,-0.18 0.04,-0.31zm-1.42 -0.76c0.25,-0.03 0.52,-0.1 0.76,-0.14 1.93,-0.31 1.77,-0.42 1.68,1.48 -0.04,0.86 -0.77,0.8 -1.51,1 -0.1,0.03 -0.8,0.19 -0.94,0.25 0,0.05 0.01,0.13 0.01,0.17 0,0.12 0,0.25 0,0.37l2.56 -0.69 0.3 -3.38c-0.62,0.06 -1.17,0.21 -1.76,0.27 -0.59,0.06 -0.71,-0.28 -0.71,-0.81 0,-0.39 0,-0.77 0,-1.16 0,-0.38 0,-0.75 0,-1.13 -0,-0.51 0.04,-0.81 0.64,-0.82 0.71,-0 1.43,0 2.14,0l0.04 -0.37 -3.2 -0.01 -0.01 4.95zm-3.93 0.94c0.05,-0.79 0.01,-1.71 0.01,-2.49 -0,-0.98 -0.01,-1.97 -0.01,-2.95 0,-0.56 -0.22,-1.57 0.61,-1.57l1.26 0c0.41,0 0.61,0.21 0.61,0.61l-0 9.13c0,0.88 -0.71,0.61 -1.24,0.47l-2.61 -0.73c-0.48,-0.13 -1.15,-0.15 -1.15,-0.8 0,-0.38 -0.07,-1.65 0.09,-1.97 0.21,-0.43 0.9,-0.14 1.24,-0.05 0.35,0.1 0.81,0.27 1.19,0.34zm-1.47 0.71l0 0.69 2.89 0.8 0.01 -8.1 -0.39 -0c-0.05,0.71 -0.02,1.56 -0.01,2.26 0,0.89 0.02,1.77 0.02,2.66 0,0.42 0,0.84 0,1.26 0,0.49 0.01,1.09 -0.7,0.94 -0.36,-0.08 -1.37,-0.43 -1.81,-0.51z"/>
  </g>
  <g id="_2515549128240">
   <path class="fil0" d="M14.45 0.17c-4.71,0 -9.27,0 -13.84,0 -0.61,0 -0.44,0.53 -0.39,1.01 0.04,0.45 0.07,0.91 0.13,1.36 0.11,0.92 0.15,1.87 0.25,2.8 0.2,1.87 0.3,3.72 0.5,5.58 0.1,0.92 0.18,1.88 0.25,2.78 0.11,1.49 -0.11,1.18 1.44,1.63l3.53 1.01c0.27,0.08 1.02,0.32 1.21,0.33 0.23,0.01 2.05,-0.56 2.38,-0.65l3.53 -1.01c0.21,-0.1 0.2,-0.24 0.23,-0.53l0.32 -3.51c0.16,-1.87 0.3,-3.73 0.5,-5.59l0.37 -4.19c0.04,-0.49 0.23,-1.03 -0.39,-1.03zm-1.51 14.22l1.21 -13.49 -13.22 -0.01c-0.02,0.27 1.14,12.97 1.16,13.12 0.04,0.47 -0.04,0.36 0.4,0.49l4.87 1.39c0.27,0.07 0.45,-0.02 0.72,-0.1l3.48 -1c0.3,-0.09 1.18,-0.29 1.39,-0.41z"/>
   <path class="fil0" d="M7.89 3.48l0 5.91c0,0.66 0.58,0.43 1.06,0.35 0.45,-0.07 0.96,-0.2 1.41,-0.23 -0.02,0.76 0.19,0.58 -1.39,1 -0.22,0.06 -0.45,0.12 -0.67,0.18 -0.28,0.07 -0.41,0.15 -0.41,0.48 0,2.41 -0.34,2.1 2.47,1.35 0.46,-0.12 0.91,-0.25 1.37,-0.38 0.54,-0.15 0.46,-0.23 0.54,-1.24 0.08,-1.06 0.16,-2.15 0.27,-3.21 0.09,-0.83 -0.21,-0.74 -0.92,-0.62 -0.41,0.06 -1.21,0.21 -1.57,0.2l0 -2.07c0.4,-0.04 0.95,-0.01 1.36,-0.01 1.44,0 1.37,0.21 1.46,-1.26 0.03,-0.46 0.17,-0.89 -0.4,-0.89l-4.14 0c-0.31,0 -0.44,0.13 -0.44,0.44zm0.73 5.63c0.27,-0 0.66,-0.1 0.95,-0.15 1.82,-0.29 1.57,-0.44 1.48,1.31 -0.03,0.61 -0.19,0.52 -1.38,0.85 -1.21,0.33 -1.06,0.2 -1.06,0.59 0,0.2 -0,0.39 0.01,0.59l2.88 -0.77 0.33 -3.69c-1.91,0.11 -2.49,0.77 -2.49,-0.36 0,-0.39 0,-0.77 0,-1.16 0,-0.38 0,-0.75 0,-1.13 -0,-0.44 0,-0.65 0.48,-0.65 0.76,-0 1.53,0 2.29,0l0.07 -0.71 -3.55 -0.01 -0.01 5.3z"/>
   <path class="fil0" d="M5.01 10.07c-0.32,-0.04 -1.03,-0.27 -1.39,-0.37 -1.31,-0.36 -1.12,-0.36 -1.12,1.85 0,0.47 0.37,0.46 1.03,0.64l2.61 0.73c0.46,0.12 1.03,0.4 1.03,-0.31l0 -9.13c0,-0.31 -0.13,-0.44 -0.44,-0.44l-1.26 0c-0.59,0 -0.45,0.55 -0.45,1.4 0,0.93 0.04,5.07 -0.01,5.63zm-1.79 0.34l0 1 3.22 0.9 0.01 -8.49 -0.71 -0.01c-0.06,0.62 -0.01,4.16 -0.01,5.09 0,0.42 -0,0.84 0,1.26 0,0.43 0.05,0.89 -0.5,0.78 -0.39,-0.08 -1.8,-0.55 -2.01,-0.53z"/>
  </g>
 </g>
</svg>
